<?xml version="1.0" encoding="UTF-8" standalone="no"?>
<!-- Created with Inkscape (http://www.inkscape.org/) -->

<svg
   width="48"
   height="48"
   viewBox="0 0 48 48"
   version="1.1"
   id="svg5"
   sodipodi:docname="card.svg"
   inkscape:version="1.1.1 (3bf5ae0d25, 2021-09-20)"
   xmlns:inkscape="http://www.inkscape.org/namespaces/inkscape"
   xmlns:sodipodi="http://sodipodi.sourceforge.net/DTD/sodipodi-0.dtd"
   xmlns="http://www.w3.org/2000/svg"
   xmlns:svg="http://www.w3.org/2000/svg">
  <sodipodi:namedview
     id="namedview7"
     pagecolor="#ffffff"
     bordercolor="#666666"
     borderopacity="1.0"
     inkscape:pageshadow="2"
     inkscape:pageopacity="0.0"
     inkscape:pagecheckerboard="0"
     inkscape:document-units="px"
     showgrid="false"
     inkscape:zoom="8"
     inkscape:cx="48.6875"
     inkscape:cy="36.5625"
     inkscape:window-width="1920"
     inkscape:window-height="1001"
     inkscape:window-x="-9"
     inkscape:window-y="-9"
     inkscape:window-maximized="1"
     inkscape:current-layer="layer1" />
  <defs
     id="defs2" />
  <g
     inkscape:label="图层 1"
     inkscape:groupmode="layer"
     id="layer1">
    <path
       id="path283"
       style="fill:#000000"
       d="M 0 0 L 0 24 A 24 24 0 0 1 24 0 L 0 0 z M 24 0 A 24 24 0 0 1 48 24 L 48 0 L 24 0 z M 48 24 A 24 24 0 0 1 24 48 L 48 48 L 48 24 z M 24 48 A 24 24 0 0 1 0 24 L 0 48 L 24 48 z " />
    <circle
       style="fill:#000000;stroke-width:1.02174"
       id="path596"
       cx="24"
       cy="24"
       r="23.5" />
    <path
       id="rect730-9"
       style="fill:#f9f9f9;stroke-width:1.99999"
       d="M 13.445312,26 C 11.535594,26 10,27.535594 10,29.445312 v 5.109376 C 10,36.464406 11.535594,38 13.445312,38 h 5.109376 C 20.464406,38 22,36.464406 22,34.554688 V 29.445312 C 22,27.535594 20.464406,26 18.554688,26 Z M 12,28 h 8 v 8 h -8 z" />
    <path
       id="rect730-7-4"
       style="fill:#f9f9f9;stroke-width:1.99999"
       d="M 29.445312,26 C 27.535594,26 26,27.535594 26,29.445312 v 5.109376 C 26,36.464406 27.535594,38 29.445312,38 h 5.109376 C 36.464406,38 38,36.464406 38,34.554688 V 29.445312 C 38,27.535594 36.464406,26 34.554688,26 Z M 28,28 h 8 v 8 h -8 z" />
    <path
       id="rect730"
       style="fill:#f9f9f9;stroke-width:1.99999"
       d="M 13.445312,10 C 11.535594,10 10,11.535594 10,13.445312 v 5.109376 C 10,20.464406 11.535594,22 13.445312,22 h 5.109376 C 20.464406,22 22,20.464406 22,18.554688 V 13.445312 C 22,11.535594 20.464406,10 18.554688,10 Z M 12,12 h 8 v 8 h -8 z" />
    <path
       id="rect730-7"
       style="fill:#f9f9f9;stroke-width:1.99999"
       d="M 29.445312,10 C 27.535594,10 26,11.535594 26,13.445312 v 5.109376 C 26,20.464406 27.535594,22 29.445312,22 h 5.109376 C 36.464406,22 38,20.464406 38,18.554688 V 13.445312 C 38,11.535594 36.464406,10 34.554688,10 Z M 28,12 h 8 v 8 h -8 z" />
  </g>
</svg>
