<?xml version="1.0" encoding="UTF-8" standalone="no"?>
<!-- Created with Inkscape (http://www.inkscape.org/) -->

<svg
   width="48"
   height="48"
   viewBox="0 0 48 48"
   version="1.1"
   id="svg5"
   sodipodi:docname="list.svg"
   inkscape:version="1.1.1 (3bf5ae0d25, 2021-09-20)"
   xmlns:inkscape="http://www.inkscape.org/namespaces/inkscape"
   xmlns:sodipodi="http://sodipodi.sourceforge.net/DTD/sodipodi-0.dtd"
   xmlns="http://www.w3.org/2000/svg"
   xmlns:svg="http://www.w3.org/2000/svg">
  <sodipodi:namedview
     id="namedview7"
     pagecolor="#ffffff"
     bordercolor="#666666"
     borderopacity="1.0"
     inkscape:pageshadow="2"
     inkscape:pageopacity="0.0"
     inkscape:pagecheckerboard="0"
     inkscape:document-units="px"
     showgrid="false"
     inkscape:zoom="8"
     inkscape:cx="52.5625"
     inkscape:cy="34.0625"
     inkscape:window-width="1920"
     inkscape:window-height="1001"
     inkscape:window-x="-9"
     inkscape:window-y="-9"
     inkscape:window-maximized="1"
     inkscape:current-layer="layer1" />
  <defs
     id="defs2" />
  <g
     inkscape:label="图层 1"
     inkscape:groupmode="layer"
     id="layer1">
    <path
       id="path283"
       style="fill:#000000"
       d="M 0 0 L 0 24 A 24 24 0 0 1 24 0 L 0 0 z M 24 0 A 24 24 0 0 1 48 24 L 48 0 L 24 0 z M 48 24 A 24 24 0 0 1 24 48 L 48 48 L 48 24 z M 24 48 A 24 24 0 0 1 0 24 L 0 48 L 24 48 z " />
    <circle
       style="fill:#000000;stroke-width:1.02174"
       id="path596"
       cx="24"
       cy="24"
       r="23.5" />
    <path
       id="rect730-4"
       style="fill:#f9f9f9"
       d="m 12.347656,30.8125 c -0.954859,0 -1.722656,0.767797 -1.722656,1.722656 v 2.554688 c 0,0.954859 0.767797,1.722656 1.722656,1.722656 h 2.554688 c 0.954859,0 1.722656,-0.767797 1.722656,-1.722656 v -2.554688 c 0,-0.954859 -0.767797,-1.722656 -1.722656,-1.722656 z m -0.722656,1 h 4 v 4 h -4 z" />
    <path
       id="rect834-2"
       style="fill:#f9f9f9"
       d="m 22.701172,30.8125 c -1.150728,0 -2.076172,0.925444 -2.076172,2.076172 v 1.847656 c 0,1.150728 0.925444,2.076172 2.076172,2.076172 h 13.847656 c 1.150728,0 2.076172,-0.925444 2.076172,-2.076172 v -1.847656 c 0,-1.150728 -0.925444,-2.076172 -2.076172,-2.076172 z m -1.076172,1 h 16 v 4 h -16 z" />
    <path
       id="rect730-7"
       style="fill:#f9f9f9"
       d="m 12.285156,20.8125 c -0.954859,0 -1.722656,0.767797 -1.722656,1.722656 v 2.554688 c 0,0.954859 0.767797,1.722656 1.722656,1.722656 h 2.554688 c 0.954859,0 1.722656,-0.767797 1.722656,-1.722656 v -2.554688 c 0,-0.954859 -0.767797,-1.722656 -1.722656,-1.722656 z m -0.722656,1 h 4 v 4 h -4 z" />
    <path
       id="rect834-0"
       style="fill:#f9f9f9"
       d="m 22.638672,20.8125 c -1.150728,0 -2.076172,0.925444 -2.076172,2.076172 v 1.847656 c 0,1.150728 0.925444,2.076172 2.076172,2.076172 h 13.847656 c 1.150728,0 2.076172,-0.925444 2.076172,-2.076172 v -1.847656 c 0,-1.150728 -0.925444,-2.076172 -2.076172,-2.076172 z m -1.076172,1 h 16 v 4 h -16 z" />
    <path
       id="rect730"
       style="fill:#f9f9f9"
       d="M 11.722656 11 C 10.767797 11 10 11.767797 10 12.722656 L 10 15.277344 C 10 16.232203 10.767797 17 11.722656 17 L 14.277344 17 C 15.232203 17 16 16.232203 16 15.277344 L 16 12.722656 C 16 11.767797 15.232203 11 14.277344 11 L 11.722656 11 z M 11 12 L 15 12 L 15 16 L 11 16 L 11 12 z " />
    <path
       id="rect834"
       style="fill:#f9f9f9"
       d="M 22.076172 11 C 20.925444 11 20 11.925444 20 13.076172 L 20 14.923828 C 20 16.074556 20.925444 17 22.076172 17 L 35.923828 17 C 37.074556 17 38 16.074556 38 14.923828 L 38 13.076172 C 38 11.925444 37.074556 11 35.923828 11 L 22.076172 11 z M 21 12 L 37 12 L 37 16 L 21 16 L 21 12 z " />
  </g>
</svg>
